<mxfile host="Electron" modified="2024-11-10T19:10:08.915Z" agent="Mozilla/5.0 (Macintosh; Intel Mac OS X 10_15_7) AppleWebKit/537.36 (KHTML, like Gecko) draw.io/22.0.3 Chrome/114.0.5735.289 Electron/25.8.4 Safari/537.36" etag="OzmiGOZBq0utQ_HggdC-" version="22.0.3" type="device">
  <diagram name="Page-1" id="YcWfa-4J-N4qGRzt6SM_">
    <mxGraphModel dx="1405" dy="888" grid="1" gridSize="10" guides="1" tooltips="1" connect="1" arrows="1" fold="1" page="1" pageScale="1" pageWidth="827" pageHeight="1169" math="0" shadow="0">
      <root>
        <mxCell id="0" />
        <mxCell id="1" parent="0" />
        <mxCell id="Mp3zfklQ18ipr0NWlu_M-14" style="edgeStyle=orthogonalEdgeStyle;rounded=0;orthogonalLoop=1;jettySize=auto;html=1;exitX=1;exitY=0.5;exitDx=0;exitDy=0;entryX=0;entryY=0.25;entryDx=0;entryDy=0;" edge="1" parent="1" source="Mp3zfklQ18ipr0NWlu_M-3" target="Mp3zfklQ18ipr0NWlu_M-8">
          <mxGeometry relative="1" as="geometry" />
        </mxCell>
        <mxCell id="Mp3zfklQ18ipr0NWlu_M-18" value="hasValue(1..N)" style="edgeLabel;html=1;align=center;verticalAlign=middle;resizable=0;points=[];" vertex="1" connectable="0" parent="Mp3zfklQ18ipr0NWlu_M-14">
          <mxGeometry x="-0.1005" y="3" relative="1" as="geometry">
            <mxPoint y="1" as="offset" />
          </mxGeometry>
        </mxCell>
        <mxCell id="Mp3zfklQ18ipr0NWlu_M-19" style="edgeStyle=orthogonalEdgeStyle;rounded=0;orthogonalLoop=1;jettySize=auto;html=1;entryX=0.004;entryY=0.106;entryDx=0;entryDy=0;entryPerimeter=0;" edge="1" parent="1">
          <mxGeometry relative="1" as="geometry">
            <mxPoint x="667.6399999999999" y="157.41999999999985" as="targetPoint" />
            <mxPoint x="420" y="342" as="sourcePoint" />
            <Array as="points">
              <mxPoint x="420" y="157" />
              <mxPoint x="584" y="157" />
            </Array>
          </mxGeometry>
        </mxCell>
        <mxCell id="Mp3zfklQ18ipr0NWlu_M-20" value="hasFormula(1..1)" style="edgeLabel;html=1;align=center;verticalAlign=middle;resizable=0;points=[];" vertex="1" connectable="0" parent="Mp3zfklQ18ipr0NWlu_M-19">
          <mxGeometry x="-0.4726" y="1" relative="1" as="geometry">
            <mxPoint as="offset" />
          </mxGeometry>
        </mxCell>
        <mxCell id="Mp3zfklQ18ipr0NWlu_M-24" style="edgeStyle=orthogonalEdgeStyle;rounded=0;orthogonalLoop=1;jettySize=auto;html=1;entryX=0.5;entryY=1.052;entryDx=0;entryDy=0;entryPerimeter=0;" edge="1" parent="1" target="Mp3zfklQ18ipr0NWlu_M-17">
          <mxGeometry relative="1" as="geometry">
            <mxPoint x="431" y="510" as="targetPoint" />
            <mxPoint x="341" y="402" as="sourcePoint" />
            <Array as="points">
              <mxPoint x="242" y="402" />
              <mxPoint x="242" y="460" />
              <mxPoint x="241" y="520" />
              <mxPoint x="420" y="520" />
            </Array>
          </mxGeometry>
        </mxCell>
        <mxCell id="Mp3zfklQ18ipr0NWlu_M-27" value="composedBy(0..N)" style="edgeLabel;html=1;align=center;verticalAlign=middle;resizable=0;points=[];" vertex="1" connectable="0" parent="Mp3zfklQ18ipr0NWlu_M-24">
          <mxGeometry x="0.3102" y="3" relative="1" as="geometry">
            <mxPoint as="offset" />
          </mxGeometry>
        </mxCell>
        <mxCell id="Mp3zfklQ18ipr0NWlu_M-3" value="kpi:KPI" style="swimlane;childLayout=stackLayout;horizontal=1;startSize=50;horizontalStack=0;rounded=1;fontSize=14;fontStyle=0;strokeWidth=2;resizeParent=0;resizeLast=1;shadow=0;dashed=0;align=center;arcSize=4;whiteSpace=wrap;html=1;" vertex="1" parent="1">
          <mxGeometry x="340" y="342" width="160" height="120" as="geometry" />
        </mxCell>
        <mxCell id="Mp3zfklQ18ipr0NWlu_M-17" value="&amp;nbsp;id&lt;span style=&quot;white-space: pre;&quot;&gt;&#x9;&lt;/span&gt;&lt;span style=&quot;white-space: pre;&quot;&gt;&#x9;&lt;/span&gt;&lt;span style=&quot;white-space: pre;&quot;&gt;&#x9;&lt;/span&gt;string&lt;br&gt;&amp;nbsp;name&lt;span style=&quot;white-space: pre;&quot;&gt;&#x9;&lt;/span&gt;&lt;span style=&quot;white-space: pre;&quot;&gt;&#x9;&lt;/span&gt;string&lt;br&gt;&amp;nbsp;description&lt;span style=&quot;white-space: pre;&quot;&gt;&#x9;&lt;/span&gt;string" style="text;html=1;align=left;verticalAlign=middle;resizable=0;points=[];autosize=1;strokeColor=none;fillColor=none;" vertex="1" parent="Mp3zfklQ18ipr0NWlu_M-3">
          <mxGeometry y="50" width="160" height="70" as="geometry" />
        </mxCell>
        <mxCell id="Mp3zfklQ18ipr0NWlu_M-36" style="edgeStyle=orthogonalEdgeStyle;rounded=0;orthogonalLoop=1;jettySize=auto;html=1;entryX=0.011;entryY=0.132;entryDx=0;entryDy=0;entryPerimeter=0;" edge="1" parent="1" source="Mp3zfklQ18ipr0NWlu_M-5" target="Mp3zfklQ18ipr0NWlu_M-38">
          <mxGeometry relative="1" as="geometry">
            <mxPoint x="1000" y="160" as="targetPoint" />
          </mxGeometry>
        </mxCell>
        <mxCell id="Mp3zfklQ18ipr0NWlu_M-41" value="relatedParameter(1..1)" style="edgeLabel;html=1;align=center;verticalAlign=middle;resizable=0;points=[];" vertex="1" connectable="0" parent="Mp3zfklQ18ipr0NWlu_M-36">
          <mxGeometry x="-0.1554" y="-2" relative="1" as="geometry">
            <mxPoint x="-1" as="offset" />
          </mxGeometry>
        </mxCell>
        <mxCell id="Mp3zfklQ18ipr0NWlu_M-5" value="kpi:KPIFormula" style="swimlane;childLayout=stackLayout;horizontal=1;startSize=50;horizontalStack=0;rounded=1;fontSize=14;fontStyle=0;strokeWidth=2;resizeParent=0;resizeLast=1;shadow=0;dashed=0;align=center;arcSize=4;whiteSpace=wrap;html=1;" vertex="1" parent="1">
          <mxGeometry x="667" y="100" width="160" height="120" as="geometry" />
        </mxCell>
        <mxCell id="Mp3zfklQ18ipr0NWlu_M-6" value="formula&lt;span style=&quot;white-space: pre;&quot;&gt;&#x9;&lt;/span&gt;&lt;span style=&quot;white-space: pre;&quot;&gt;&#x9;&lt;/span&gt;string&lt;br&gt;aggregType&lt;span style=&quot;white-space: pre;&quot;&gt;&#x9;&lt;/span&gt;string" style="align=left;strokeColor=none;fillColor=none;spacingLeft=4;fontSize=12;verticalAlign=top;resizable=0;rotatable=0;part=1;html=1;" vertex="1" parent="Mp3zfklQ18ipr0NWlu_M-5">
          <mxGeometry y="50" width="160" height="70" as="geometry" />
        </mxCell>
        <mxCell id="Mp3zfklQ18ipr0NWlu_M-7" value="kpi:KPIValue" style="swimlane;childLayout=stackLayout;horizontal=1;startSize=50;horizontalStack=0;rounded=1;fontSize=14;fontStyle=0;strokeWidth=2;resizeParent=0;resizeLast=1;shadow=0;dashed=0;align=center;arcSize=4;whiteSpace=wrap;html=1;" vertex="1" parent="1">
          <mxGeometry x="667" y="330" width="160" height="140" as="geometry" />
        </mxCell>
        <mxCell id="Mp3zfklQ18ipr0NWlu_M-8" value="sum&lt;span style=&quot;&quot;&gt;&lt;span style=&quot;white-space: pre;&quot;&gt;&amp;nbsp;&amp;nbsp;&amp;nbsp;&amp;nbsp;&lt;/span&gt;&lt;/span&gt;&lt;span style=&quot;&quot;&gt;&lt;span style=&quot;white-space: pre;&quot;&gt;&amp;nbsp;&amp;nbsp;&amp;nbsp;&amp;nbsp;&lt;/span&gt;&lt;/span&gt;&lt;span style=&quot;&quot;&gt;&lt;span style=&quot;white-space: pre;&quot;&gt;&amp;nbsp;&lt;/span&gt;&lt;/span&gt;float&lt;br&gt;avg&lt;span style=&quot;white-space: pre;&quot;&gt;&#x9;&lt;/span&gt;&lt;span style=&quot;white-space: pre;&quot;&gt;&#x9;&lt;/span&gt;float&lt;span style=&quot;&quot;&gt;&lt;span style=&quot;white-space: pre;&quot;&gt;&amp;nbsp;&amp;nbsp;&amp;nbsp;&amp;nbsp;&lt;/span&gt;&lt;/span&gt;&lt;span style=&quot;&quot;&gt;&lt;span style=&quot;white-space: pre;&quot;&gt;&amp;nbsp;&amp;nbsp;&amp;nbsp;&amp;nbsp;&lt;/span&gt;&lt;/span&gt;&lt;span style=&quot;&quot;&gt;&lt;span style=&quot;white-space: pre;&quot;&gt;&amp;nbsp;&amp;nbsp;&lt;/span&gt;&lt;/span&gt;&lt;br&gt;min&lt;span style=&quot;white-space: pre;&quot;&gt;&#x9;&lt;/span&gt;&lt;span style=&quot;white-space: pre;&quot;&gt;&#x9;&lt;/span&gt;float&lt;br&gt;max&lt;span style=&quot;white-space: pre;&quot;&gt;&#x9;&lt;/span&gt;&lt;span style=&quot;white-space: pre;&quot;&gt;&#x9;&lt;/span&gt;float&lt;br&gt;var&lt;span style=&quot;white-space: pre;&quot;&gt;&#x9;&lt;/span&gt;&lt;span style=&quot;white-space: pre;&quot;&gt;&#x9;&lt;/span&gt;float" style="align=left;strokeColor=none;fillColor=none;spacingLeft=4;fontSize=12;verticalAlign=top;resizable=0;rotatable=0;part=1;html=1;" vertex="1" parent="Mp3zfklQ18ipr0NWlu_M-7">
          <mxGeometry y="50" width="160" height="90" as="geometry" />
        </mxCell>
        <mxCell id="Mp3zfklQ18ipr0NWlu_M-21" value="kpi:Scenario" style="swimlane;childLayout=stackLayout;horizontal=1;startSize=50;horizontalStack=0;rounded=1;fontSize=14;fontStyle=0;strokeWidth=2;resizeParent=0;resizeLast=1;shadow=0;dashed=0;align=center;arcSize=4;whiteSpace=wrap;html=1;" vertex="1" parent="1">
          <mxGeometry x="1000" y="340" width="160" height="120" as="geometry" />
        </mxCell>
        <mxCell id="Mp3zfklQ18ipr0NWlu_M-22" value="id&lt;span style=&quot;white-space: pre;&quot;&gt;&#x9;&lt;/span&gt;&lt;span style=&quot;white-space: pre;&quot;&gt;&#x9;&lt;/span&gt;&lt;span style=&quot;white-space: pre;&quot;&gt;&#x9;&lt;/span&gt;&lt;span style=&quot;white-space: pre;&quot;&gt;&#x9;&lt;/span&gt;string&lt;br&gt;date&lt;span style=&quot;white-space: pre;&quot;&gt;&#x9;&lt;/span&gt;&lt;span style=&quot;white-space: pre;&quot;&gt;&#x9;&lt;span style=&quot;white-space: pre;&quot;&gt;&#x9;&lt;/span&gt;&lt;span style=&quot;white-space: pre;&quot;&gt;&#x9;&lt;/span&gt;&lt;/span&gt;date&lt;br&gt;description&lt;span style=&quot;white-space: pre;&quot;&gt;&#x9;&lt;/span&gt;&lt;span style=&quot;white-space: pre;&quot;&gt;&#x9;&lt;/span&gt;string&lt;br&gt;" style="align=left;strokeColor=none;fillColor=none;spacingLeft=4;fontSize=12;verticalAlign=top;resizable=0;rotatable=0;part=1;html=1;" vertex="1" parent="Mp3zfklQ18ipr0NWlu_M-21">
          <mxGeometry y="50" width="160" height="70" as="geometry" />
        </mxCell>
        <mxCell id="Mp3zfklQ18ipr0NWlu_M-28" style="edgeStyle=orthogonalEdgeStyle;rounded=0;orthogonalLoop=1;jettySize=auto;html=1;entryX=0.008;entryY=0.131;entryDx=0;entryDy=0;entryPerimeter=0;" edge="1" parent="1" source="Mp3zfklQ18ipr0NWlu_M-7" target="Mp3zfklQ18ipr0NWlu_M-22">
          <mxGeometry relative="1" as="geometry" />
        </mxCell>
        <mxCell id="Mp3zfklQ18ipr0NWlu_M-29" value="relatedScenario(1..1)" style="edgeLabel;html=1;align=center;verticalAlign=middle;resizable=0;points=[];" vertex="1" connectable="0" parent="Mp3zfklQ18ipr0NWlu_M-28">
          <mxGeometry x="-0.2176" relative="1" as="geometry">
            <mxPoint as="offset" />
          </mxGeometry>
        </mxCell>
        <mxCell id="Mp3zfklQ18ipr0NWlu_M-31" value="kpi:KPIObjective" style="swimlane;childLayout=stackLayout;horizontal=1;startSize=50;horizontalStack=0;rounded=1;fontSize=14;fontStyle=0;strokeWidth=2;resizeParent=0;resizeLast=1;shadow=0;dashed=0;align=center;arcSize=4;whiteSpace=wrap;html=1;" vertex="1" parent="1">
          <mxGeometry x="667" y="560" width="153" height="90" as="geometry" />
        </mxCell>
        <mxCell id="Mp3zfklQ18ipr0NWlu_M-32" value="businessObj&lt;span style=&quot;white-space: pre;&quot;&gt;&#x9;&lt;/span&gt;&lt;span style=&quot;white-space: pre;&quot;&gt;&#x9;&lt;/span&gt;string" style="align=left;strokeColor=none;fillColor=none;spacingLeft=4;fontSize=12;verticalAlign=top;resizable=0;rotatable=0;part=1;html=1;" vertex="1" parent="Mp3zfklQ18ipr0NWlu_M-31">
          <mxGeometry y="50" width="153" height="40" as="geometry" />
        </mxCell>
        <mxCell id="Mp3zfklQ18ipr0NWlu_M-34" style="edgeStyle=orthogonalEdgeStyle;rounded=0;orthogonalLoop=1;jettySize=auto;html=1;entryX=1;entryY=0;entryDx=0;entryDy=0;" edge="1" parent="Mp3zfklQ18ipr0NWlu_M-31" source="Mp3zfklQ18ipr0NWlu_M-32" target="Mp3zfklQ18ipr0NWlu_M-32">
          <mxGeometry relative="1" as="geometry">
            <mxPoint x="77" y="200" as="targetPoint" />
            <Array as="points">
              <mxPoint x="77" y="130" />
              <mxPoint x="233" y="130" />
              <mxPoint x="233" y="50" />
            </Array>
          </mxGeometry>
        </mxCell>
        <mxCell id="Mp3zfklQ18ipr0NWlu_M-35" value="hasSubObjective(0..N)" style="edgeLabel;html=1;align=center;verticalAlign=middle;resizable=0;points=[];" vertex="1" connectable="0" parent="Mp3zfklQ18ipr0NWlu_M-34">
          <mxGeometry x="0.3514" y="4" relative="1" as="geometry">
            <mxPoint as="offset" />
          </mxGeometry>
        </mxCell>
        <mxCell id="Mp3zfklQ18ipr0NWlu_M-30" style="edgeStyle=orthogonalEdgeStyle;rounded=0;orthogonalLoop=1;jettySize=auto;html=1;entryX=0;entryY=0.25;entryDx=0;entryDy=0;" edge="1" parent="1" source="Mp3zfklQ18ipr0NWlu_M-17" target="Mp3zfklQ18ipr0NWlu_M-32">
          <mxGeometry relative="1" as="geometry">
            <mxPoint x="570" y="600" as="targetPoint" />
          </mxGeometry>
        </mxCell>
        <mxCell id="Mp3zfklQ18ipr0NWlu_M-33" value="hasObjective(1..1)" style="edgeLabel;html=1;align=center;verticalAlign=middle;resizable=0;points=[];" vertex="1" connectable="0" parent="Mp3zfklQ18ipr0NWlu_M-30">
          <mxGeometry x="-0.1363" y="-3" relative="1" as="geometry">
            <mxPoint as="offset" />
          </mxGeometry>
        </mxCell>
        <mxCell id="Mp3zfklQ18ipr0NWlu_M-37" value="kpi:PerformanceParameter" style="swimlane;childLayout=stackLayout;horizontal=1;startSize=50;horizontalStack=0;rounded=1;fontSize=14;fontStyle=0;strokeWidth=2;resizeParent=0;resizeLast=1;shadow=0;dashed=0;align=center;arcSize=4;whiteSpace=wrap;html=1;" vertex="1" parent="1">
          <mxGeometry x="1000" y="102" width="189" height="114" as="geometry" />
        </mxCell>
        <mxCell id="Mp3zfklQ18ipr0NWlu_M-38" value="value&lt;span style=&quot;white-space: pre;&quot;&gt;&#x9;&lt;/span&gt;&lt;span style=&quot;white-space: pre;&quot;&gt;&#x9;&lt;/span&gt;&lt;span style=&quot;white-space: pre;&quot;&gt;&#x9;&lt;/span&gt;float&lt;br&gt;unitOfMeasure&lt;span style=&quot;white-space: pre;&quot;&gt;&#x9;&lt;/span&gt;string" style="align=left;strokeColor=none;fillColor=none;spacingLeft=4;fontSize=12;verticalAlign=top;resizable=0;rotatable=0;part=1;html=1;" vertex="1" parent="Mp3zfklQ18ipr0NWlu_M-37">
          <mxGeometry y="50" width="189" height="64" as="geometry" />
        </mxCell>
        <mxCell id="Mp3zfklQ18ipr0NWlu_M-42" style="edgeStyle=orthogonalEdgeStyle;rounded=0;orthogonalLoop=1;jettySize=auto;html=1;entryX=-0.011;entryY=0.129;entryDx=0;entryDy=0;entryPerimeter=0;" edge="1" parent="1" source="Mp3zfklQ18ipr0NWlu_M-22" target="Mp3zfklQ18ipr0NWlu_M-44">
          <mxGeometry relative="1" as="geometry">
            <mxPoint x="1340" y="425" as="targetPoint" />
            <Array as="points">
              <mxPoint x="1260" y="410" />
              <mxPoint x="1260" y="409" />
            </Array>
          </mxGeometry>
        </mxCell>
        <mxCell id="Mp3zfklQ18ipr0NWlu_M-45" value="relatedMachine(1..1)" style="edgeLabel;html=1;align=center;verticalAlign=middle;resizable=0;points=[];" vertex="1" connectable="0" parent="Mp3zfklQ18ipr0NWlu_M-42">
          <mxGeometry x="0.0154" y="2" relative="1" as="geometry">
            <mxPoint y="1" as="offset" />
          </mxGeometry>
        </mxCell>
        <mxCell id="Mp3zfklQ18ipr0NWlu_M-43" value="Machine" style="swimlane;childLayout=stackLayout;horizontal=1;startSize=50;horizontalStack=0;rounded=1;fontSize=14;fontStyle=0;strokeWidth=2;resizeParent=0;resizeLast=1;shadow=0;dashed=0;align=center;arcSize=4;whiteSpace=wrap;html=1;" vertex="1" parent="1">
          <mxGeometry x="1340" y="340" width="160" height="120" as="geometry" />
        </mxCell>
        <mxCell id="Mp3zfklQ18ipr0NWlu_M-44" value="name" style="align=left;strokeColor=none;fillColor=none;spacingLeft=4;fontSize=12;verticalAlign=top;resizable=0;rotatable=0;part=1;html=1;" vertex="1" parent="Mp3zfklQ18ipr0NWlu_M-43">
          <mxGeometry y="50" width="160" height="70" as="geometry" />
        </mxCell>
      </root>
    </mxGraphModel>
  </diagram>
</mxfile>
